#!OML:ASF I:\Actors\actors\Patient Classification 2\Patient 1\Session 1\actor1.ASF
:FULLY-SPECIFIED
:DEGREES
459
root -0.594632 18.6891 6.14179 3.69958 -1.38435 -4.22459
lowerback 20.7216 0.857944 -2.45404
upperback -2.06486 0.686879 1.23646
thorax -14.1129 0.572445 2.58514
lowerneck -15.365 -0.936678 0.227391
upperneck 21.0784 -1.86308 2.10798
head 9.18327 -0.62046 0.454122
rclavicle -9.19379e-015 6.36111e-015
rhumerus -45.7041 -28.6676 -7.03584
rradius 72.5343
rwrist -24.8921
rhand 17.2815 -31.4398
rfingers 7.12502
rthumb 41.9947 -56.0316
lclavicle -9.19379e-015 6.36111e-015
lhumerus -42.5118 34.6427 10.512
lradius 67.14
lwrist 38.166
lhand 4.37121 -28.2296
lfingers 7.12502
lthumb 29.77 -0.600974
rfemur 5.56988 2.1893 17.9221
rtibia 0
rfoot -16.714 -12.5618
rtoes -13.9784
lfemur -9.16118 -3.13418 -10.1415
ltibia 26.9835
lfoot -22.4594 9.66053
ltoes -56.7523
460
root -0.58983 18.6932 6.12714 3.77372 -1.28749 -4.27656
lowerback 20.9037 0.849542 -2.50659
upperback -2.00716 0.668059 1.30754
thorax -14.1527 0.571736 2.70263
lowerneck -15.3521 -0.965927 0.0591625
upperneck 20.8343 -1.83989 2.04697
head 9.09663 -0.632315 0.463947
rclavicle 1.74931e-014 -2.78299e-015
rhumerus -45.9042 -27.5174 -8.60007
rradius 73.6734
rwrist -24.6307
rhand 17.351 -30.9043
rfingers 7.12502
rthumb 42.0599 -55.4743
lclavicle 1.74931e-014 -2.78299e-015
lhumerus -43.243 32.9799 12.6095
lradius 68.6865
lwrist 38.301
lhand 3.7438 -28.416
lfingers 7.12502
lthumb 29.1711 -0.681813
rfemur 5.45245 2.09341 17.9621
rtibia 9.54166e-015
rfoot -16.6614 -12.5868
rtoes -13.9088
lfemur -9.35582 -3.09042 -10.0769
ltibia 27.0507
lfoot -22.3697 9.57032
ltoes -56.7618
461
root -0.584528 18.6964 6.11244 3.83147 -1.19275 -4.33347
lowerback 21.0669 0.856909 -2.54367
upperback -1.97961 0.671552 1.35711
thorax -14.2178 0.579655 2.77979
lowerneck -15.2243 -0.983369 0.0477649
upperneck 20.5652 -1.8231 1.9166
head 8.97862 -0.643017 0.423694
rclavicle 6.90777e-015 7.95139e-016
rhumerus -46.1128 -26.3143 -10.0999
rradius 74.7451
rwrist -24.2293
rhand 17.661 -30.4952
rfingers 7.12502
rthumb 42.3502 -54.9668
lclavicle 6.90777e-015 7.95139e-016
lhumerus -43.8998 31.4556 14.7187
lradius 70.1349
lwrist 37.9649
lhand 3.54308 -28.6914
lfingers 7.12502
lthumb 28.9794 -0.924121
rfemur 5.35291 2.00067 18.0046
rtibia -3.18055e-015
rfoot -16.6572 -12.5876
rtoes -13.4577
lfemur -9.53568 -3.05245 -10.0133
ltibia 27.122
lfoot -22.3018 9.50473
ltoes -56.8349
462
root -0.579611 18.699 6.09862 3.86112 -1.08355 -4.38621
lowerback 21.1952 0.870691 -2.55427
upperback -1.94552 0.68553 1.3664
thorax -14.2542 0.587484 2.79214
lowerneck -15.1608 -0.997581 0.0810526
upperneck 20.4213 -1.83519 1.8653
head 8.91674 -0.653333 0.399429
rclavicle 6.90777e-015 -6.36111e-015
rhumerus -46.3845 -25.1827 -11.5784
rradius 75.8646
rwrist -23.7904
rhand 18.2995 -30.3586
rfingers 7.12502
rthumb 42.9478 -54.623
lclavicle 6.90777e-015 -6.36111e-015
lhumerus -44.4153 30.0689 16.8246
lradius 71.4936
lwrist 37.4272
lhand 3.52444 -29.0049
lfingers 7.12502
lthumb 28.9616 -1.23454
rfemur 5.29106 1.89426 18.0494
rtibia 7.95139e-015
rfoot -16.653 -12.6163
rtoes -13.2021
lfemur -9.69913 -3.00711 -9.95043
ltibia 27.2092
lfoot -22.2378 9.39884
ltoes -56.8333
463
root -0.574831 18.701 6.08441 3.83707 -0.940469 -4.40048
lowerback 21.3557 0.859674 -2.56176
upperback -1.88514 0.661977 1.34352
thorax -14.275 0.575615 2.77833
lowerneck -15.2084 -1.01962 0.0194975
upperneck 20.3343 -1.87124 1.96483
head 8.89769 -0.664659 0.438919
rclavicle 1.21259e-014 -8.34896e-015
rhumerus -46.5643 -24.1855 -13.1385
rradius 76.9959
rwrist -23.4968
rhand 18.8769 -30.3964
rfingers 7.12502
rthumb 43.4874 -54.4679
lclavicle 1.21259e-014 -8.34896e-015
lhumerus -44.886 28.7825 18.8758
lradius 72.8119
lwrist 36.9023
lhand 3.39113 -29.4097
lfingers 7.12502
lthumb 28.8342 -1.61752
rfemur 5.28472 1.7533 18.0601
rtibia -6.36111e-015
rfoot -16.6085 -12.6983
rtoes -13.363
lfemur -9.83005 -3.00113 -9.93108
ltibia 27.3183
lfoot -22.1365 9.2814
ltoes -56.8237
464
root -0.568406 18.7014 6.07242 3.7872 -0.83118 -4.42241
lowerback 21.5112 0.847022 -2.5158
upperback -1.8367 0.647797 1.30224
thorax -14.3063 0.563104 2.70974
lowerneck -15.1642 -1.0745 -0.108348
upperneck 20.1487 -1.95286 2.15113
head 8.83031 -0.694779 0.513673
rclavicle -1.56046e-014 -4.77083e-015
rhumerus -46.6963 -23.3433 -14.7033
rradius 78.0818
rwrist -23.2566
rhand 19.3647 -30.4331
rfingers 7.12502
rthumb 43.9428 -54.3373
lclavicle -1.56046e-014 -4.77083e-015
lhumerus -45.316 27.6984 20.914
lradius 74.054
lwrist 36.3311
lhand 3.2008 -29.791
lfingers 7.12502
lthumb 28.6524 -1.96799
rfemur 5.30417 1.64749 18.0694
rtibia 9.54166e-015
rfoot -16.5828 -12.755
rtoes -13.4124
lfemur -9.92504 -2.98801 -9.9185
ltibia 27.4463
lfoot -22.037 9.224
ltoes -56.9789
465
root -0.560469 18.7 6.06284 3.70954 -0.777044 -4.4282
lowerback 21.6779 0.864791 -2.47709
upperback -1.80943 0.669916 1.24643
thorax -14.3715 0.567647 2.61671
lowerneck -14.9992 -1.14582 -0.131716
upperneck 19.8235 -2.04158 2.17434
head 8.6908 -0.740122 0.515308
rclavicle 2.11706e-014 -7.95139e-015
rhumerus -46.9024 -22.6388 -16.1729
rradius 79.1506
rwrist -22.9004
rhand 19.432 -30.1682
rfingers 7.12502
rthumb 44.0056 -54.049
lclavicle 2.11706e-014 -7.95139e-015
lhumerus -45.6939 26.6984 22.9716
lradius 75.2576
lwrist 35.9925
lhand 3.21667 -30.0364
lfingers 7.12502
lthumb 28.6676 -2.21594
rfemur 5.356 1.59673 18.0483
rtibia 6.36111e-015
rfoot -16.5519 -12.7927
rtoes -13.4841
lfemur -9.97683 -2.95976 -9.93277
ltibia 27.5966
lfoot -21.9618 9.18432
ltoes -57.0877
466
root -0.552112 18.6989 6.05565 3.60441 -0.748761 -4.39323
lowerback 21.7795 0.91375 -2.54115
upperback -1.73698 0.712266 1.22259
thorax -14.3487 0.58925 2.6118
lowerneck -15.0074 -1.18323 -0.0758191
upperneck 19.5949 -2.06105 1.9947
head 8.61193 -0.766158 0.442988
rclavicle 2.09718e-014 -6.75868e-015
rhumerus -46.9888 -22.163 -17.5628
rradius 80.1497
rwrist -22.4429
rhand 19.1067 -29.8683
rfingers 7.12502
rthumb 43.702 -53.8614
lclavicle 2.09718e-014 -6.75868e-015
lhumerus -46.0537 25.6908 25.07
lradius 76.4861
lwrist 35.9619
lhand 3.62634 -30.2452
lfingers 7.12502
lthumb 29.0589 -2.49159
rfemur 5.44955 1.57037 17.98
rtibia -1.59028e-015
rfoot -16.505 -12.8368
rtoes -13.5696
lfemur -9.99737 -2.91491 -9.99127
ltibia 27.7701
lfoot -21.8876 9.12062
ltoes -57.1147
467
root -0.544356 18.6975 6.05041 3.50183 -0.747435 -4.41937
lowerback 21.7729 0.986591 -2.56829
upperback -1.61537 0.803755 1.23403
thorax -14.2079 0.62962 2.60888
lowerneck -15.201 -1.2162 -0.0759956
upperneck 19.4895 -2.08008 1.88292
head 8.61009 -0.786395 0.402114
rclavicle -2.03754e-014 9.14409e-015
rhumerus -46.964 -21.8593 -18.9239
rradius 81.1387
rwrist -22.0473
rhand 18.435 -29.73
rfingers 7.12502
rthumb 43.0745 -53.9496
lclavicle -2.03754e-014 9.14409e-015
lhumerus -46.3115 24.8209 27.2429
lradius 77.6968
lwrist 35.8008
lhand 4.02131 -30.4358
lfingers 7.12502
lthumb 29.436 -2.74793
rfemur 5.54235 1.57455 17.9878
rtibia -1.59028e-015
rfoot -16.4364 -12.9134
rtoes -13.8276
lfemur -10.015 -2.79832 -9.97701
ltibia 27.9585
lfoot -21.8548 9.01287
ltoes -57.1649
468
root -0.537436 18.6947 6.04385 3.35824 -0.737501 -4.46565
lowerback 21.8017 1.06459 -2.54311
upperback -1.508 0.913026 1.2314
thorax -14.1048 0.674085 2.55413
lowerneck -15.2898 -1.28197 -0.17756
upperneck 19.3391 -2.15196 1.92604
head 8.57752 -0.823812 0.424589
rclavicle 2.88238e-015 -5.96354e-015
rhumerus -47.0104 -21.4695 -20.2632
rradius 82.1662
rwrist -21.6974
rhand 17.5351 -29.5264
rfingers 7.12502
rthumb 42.2323 -54.0381
lclavicle 2.88238e-015 -5.96354e-015
lhumerus -46.4479 24.1893 29.4178
lradius 78.7792
lwrist 35.254
lhand 3.9856 -30.5926
lfingers 7.12502
lthumb 29.402 -2.89871
rfemur 5.67315 1.57254 18.0262
rtibia -2.06736e-014
rfoot -16.3554 -12.9942
rtoes -14.2447
lfemur -9.99654 -2.63847 -9.93352
ltibia 28.1546
lfoot -21.8305 8.83495
ltoes -57.1926
469
root -0.530573 18.6914 6.03653 3.16619 -0.683006 -4.47533
lowerback 21.8874 1.1201 -2.54756
upperback -1.42672 0.980921 1.21306
thorax -14.063 0.702539 2.51252
lowerneck -15.3399 -1.34408 -0.301064
upperneck 19.2485 -2.22179 2.00258
head 8.55902 -0.858067 0.462351
rclavicle -8.34896e-015 2.78299e-015
rhumerus -47.0124 -21.0214 -21.6067
rradius 83.0988
rwrist -21.1968
rhand 16.8029 -29.343
rfingers 7.12502
rthumb 41.5459 -54.0834
lclavicle -8.34896e-015 2.78299e-015
lhumerus -46.5594 23.6854 31.4977
lradius 79.6496
lwrist 34.5773
lhand 3.89083 -30.8386
lfingers 7.12502
lthumb 29.3115 -3.12881
rfemur 5.86502 1.52582 18.0205
rtibia -1.59028e-015
rfoot -16.3518 -13.0155
rtoes -14.0873
lfemur -9.93819 -2.5432 -9.92967
ltibia 28.3531
lfoot -21.7828 8.66232
ltoes -57.1762
470
root -0.524025 18.6875 6.02917 2.94773 -0.626784 -4.50597
lowerback 22.0111 1.18184 -2.54457
upperback -1.3507 1.05934 1.20348
thorax -14.0501 0.736144 2.47296
lowerneck -15.4572 -1.39769 -0.366798
upperneck 19.2008 -2.28449 2.03002
head 8.56597 -0.888961 0.474395
rclavicle -1.5207e-014 -5.56597e-015
rhumerus -46.9231 -20.6314 -22.9003
rradius 83.9279
rwrist -20.6946
rhand 16.2121 -29.3384
rfingers 7.12502
rthumb 40.9914 -54.2576
lclavicle -1.5207e-014 -5.56597e-015
lhumerus -46.623 23.051 33.5951
lradius 80.444
lwrist 34.1459
lhand 3.87961 -31.0563
lfingers 7.12502
lthumb 29.3008 -3.34464
rfemur 6.08624 1.47955 18.0325
rtibia 3.18055e-014
rfoot -16.3785 -13.0027
rtoes -13.4989
lfemur -9.85333 -2.47027 -9.90183
ltibia 28.5458
lfoot -21.6892 8.51377
ltoes -57.2207
471
root -0.516767 18.6829 6.02159 2.72179 -0.594665 -4.4913
lowerback 22.1466 1.27844 -2.56532
upperback -1.28966 1.17526 1.17937
thorax -14.0643 0.788363 2.41753
lowerneck -15.4926 -1.48158 -0.490014
upperneck 19.0683 -2.37265 2.05959
head 8.53045 -0.937149 0.494169
rclavicle -1.07344e-014 -1.47101e-014
rhumerus -46.8821 -20.1846 -24.0764
rradius 84.7578
rwrist -20.3121
rhand 16.1411 -29.2274
rfingers 7.12502
rthumb 40.9247 -54.1677
lclavicle -1.07344e-014 -1.47101e-014
lhumerus -46.5954 22.1702 35.8053
lradius 81.3318
lwrist 33.9384
lhand 3.67167 -31.0601
lfingers 7.12502
lthumb 29.1022 -3.31393
rfemur 6.30754 1.45556 17.9895
rtibia 1.90833e-014
rfoot -16.3531 -12.9984
rtoes -13.2044
lfemur -9.75857 -2.33112 -9.92624
ltibia 28.7384
lfoot -21.5517 8.30237
ltoes -57.3206
472
root -0.509443 18.6798 6.01482 2.53474 -0.500406 -4.41018
lowerback 22.2345 1.3663 -2.61299
upperback -1.2519 1.26867 1.12143
thorax -14.0765 0.830916 2.34652
lowerneck -15.4993 -1.59989 -0.721843
upperneck 18.9484 -2.50798 2.21076
head 8.49806 -1.00273 0.567388
rclavicle 1.05356e-014 -1.59028e-014
rhumerus -46.9458 -19.6862 -25.1903
rradius 85.6312
rwrist -19.8439
rhand 16.0935 -28.7483
rfingers 7.12502
rthumb 40.88 -53.7027
lclavicle 1.05356e-014 -1.59028e-014
lhumerus -46.4382 21.3176 37.9999
lradius 82.1423
lwrist 33.3912
lhand 3.51831 -31.1191
lfingers 7.12502
lthumb 28.9557 -3.3477
rfemur 6.49965 1.3658 17.8762
rtibia 4.77083e-015
rfoot -16.2704 -13.045
rtoes -13.4381
lfemur -9.72452 -2.23764 -10.0207
ltibia 28.9477
lfoot -21.445 8.05195
ltoes -57.3377
473
root -0.503379 18.6773 6.00816 2.36629 -0.316665 -4.3826
lowerback 22.2929 1.41534 -2.60625
upperback -1.20709 1.32686 1.07042
thorax -14.0595 0.853288 2.2642
lowerneck -15.5365 -1.69874 -0.876019
upperneck 18.8164 -2.63635 2.36759
head 8.46668 -1.05867 0.630203
rclavicle 1.00386e-014 -1.55052e-014
rhumerus -47.019 -19.2473 -26.3131
rradius 86.546
rwrist -19.2856
rhand 15.13 -28.3321
rfingers 7.12502
rthumb 39.974 -53.566
lclavicle 1.00386e-014 -1.55052e-014
lhumerus -46.1333 20.6123 40.108
lradius 82.8226
lwrist 32.3371
lhand 3.69511 -31.383
lfingers 7.12502
lthumb 29.1246 -3.64078
rfemur 6.69104 1.18884 17.8259
rtibia 6.36111e-015
rfoot -16.1596 -13.0914
rtoes -13.6603
lfemur -9.75343 -2.1501 -10.0368
ltibia 29.1824
lfoot -21.3074 7.81171
ltoes -57.4876
